<?xml version="1.0" standalone="no"?>
<!DOCTYPE svg PUBLIC "-//W3C//DTD SVG 1.1//EN" "http://www.w3.org/Graphics/SVG/1.1/DTD/svg11.dtd">
<svg viewBox="0 0 20 20" width="100%" height="100%" version="1.1" xmlns="http://www.w3.org/2000/svg">
<g>    
<path d="M 1 4 L 4.184999942779541 4 C 4.605884552001953 5.194948196411133 5.733104705810547 5.995815277099609 7.000000476837158 6 C 8.26689624786377 5.995814323425293 9.39411735534668 5.194947242736816 9.815000534057617 3.999999761581421 L 19 4 C 19.55228424072266 4 20 3.552284717559814 20 3 C 20 2.447715282440186 19.55228424072266 2 19 2 L 9.814999580383301 2 C 9.394116401672363 0.8050525188446045 8.266895294189453 0.00418543815612793 7 -2.384185791015625e-07 C 5.733104705810547 0.004185676574707031 4.605884552001953 0.8050527572631836 4.185000419616699 1.999999761581421 L 1 2 C 0.4477152228355408 2 0 2.447715282440186 0 3 C 0 3.552284717559814 0.4477152824401855 4 1 4 M 19 16 L 9.814999580383301 16 C 9.394115447998047 14.8050537109375 8.266895294189453 14.00418663024902 6.999999523162842 14 C 5.733104228973389 14.00418376922607 4.605883598327637 14.80505180358887 4.185000419616699 15.99999904632568 L 1 16 C 0.4477152228355408 16 0 16.44771575927734 0 17 C 0 17.55228424072266 0.4477152824401855 18 1 18 L 4.184999942779541 18 C 4.605884552001953 19.19495010375977 5.733104705810547 19.99581718444824 7.000000476837158 20.00000190734863 C 8.26689624786377 19.99581527709961 9.394116401672363 19.19494819641113 9.815000534057617 18.00000190734863 L 19 18 C 19.55228424072266 18 20 17.55228424072266 20 17 C 20 16.44771575927734 19.55228424072266 16 19 16 M 19 9 L 15.81500053405762 9 C 15.394118309021 7.805052757263184 14.26689720153809 7.004185676574707 13.00000095367432 7 C 11.73310565948486 7.004185676574707 10.60588455200195 7.805052757263184 10.1850004196167 9 L 1 9 C 0.4477152228355408 9 0 9.447715759277344 0 10 C 0 10.55228519439697 0.4477152824401855 11 1 11 L 10.1850004196167 11 C 10.60588455200195 12.19494819641113 11.73310565948486 12.99581527709961 13.00000095367432 13.00000095367432 C 14.26689624786377 12.99581527709961 15.39411735534668 12.19494819641113 15.81500148773193 11 L 19 11 C 19.55228424072266 11 20 10.55228424072266 20 10 C 20 9.447714805603027 19.55228424072266 9 19 9 M 7 2 C 7.552284717559814 2 8 2.447715282440186 8 3 C 8 3.552284717559814 7.552284717559814 4 7 4 C 6.447715282440186 4 6 3.552284717559814 6 3 C 6 2.447715282440186 6.447715282440186 2 7 2 M 7 18 C 6.447715282440186 18 6 17.55228424072266 6 17 C 6 16.44771575927734 6.447715282440186 16 7 16 C 7.552284717559814 16 8 16.44771575927734 8 17 C 8 17.55228424072266 7.552284717559814 18 7 18 M 13 11 C 12.44771480560303 11 12 10.55228424072266 12 10 C 12 9.447714805603027 12.44771575927734 9 13 9 C 13.55228519439697 9 14 9.447715759277344 14 10 C 14 10.55228519439697 13.55228424072266 11 13 11" class="___4307_Class" fill="rgba(255,255,255,1)">
</path>
</g>
</svg>